<svg xmlns="http://www.w3.org/2000/svg" xmlns:xlink="http://www.w3.org/1999/xlink" contentStyleType="text/css" height="572.9167px" preserveAspectRatio="none" style="width:313px;height:572px;" version="1.1" viewBox="0 0 313 572" width="313.5417px" zoomAndPan="magnify"><defs><linearGradient id="g1sjozzcpj3me90" x1="50%" x2="50%" y1="0%" y2="100%"><stop offset="0%" stop-color="#7C9AB9"/><stop offset="100%" stop-color="#304D6D"/></linearGradient><linearGradient id="g1sjozzcpj3me91" x1="50%" x2="50%" y1="0%" y2="100%"><stop offset="0%" stop-color="#B8B8B8"/><stop offset="100%" stop-color="#6B6B6B"/></linearGradient></defs><g><ellipse cx="156.7179" cy="20.8333" fill="#3399F3" rx="10.4167" ry="10.4167" style="stroke:#304D6D;stroke-width:1.0416666666666667;"/><rect fill="url(#g1sjozzcpj3me90)" height="37.4674" rx="4.1667" ry="4.1667" style="stroke:#304D6D;stroke-width:1.0416666666666667;" width="290.5192" x="11.4583" y="52.0833"/><text fill="#FFFFFF" font-family="Verdana, sans" font-size="12.5" lengthAdjust="spacing" textLength="267.6025" x="22.9167" y="75.1444">Ask ChatGPT to make a PlantUML example</text><rect fill="url(#g1sjozzcpj3me90)" height="37.4674" rx="4.1667" ry="4.1667" style="stroke:#304D6D;stroke-width:1.0416666666666667;" width="207.1452" x="53.1453" y="156.2174"/><text fill="#FFFFFF" font-family="Verdana, sans" font-size="12.5" lengthAdjust="spacing" textLength="184.2285" x="64.6037" y="179.2786">Generate SVG from PlantUML</text><polygon fill="url(#g1sjozzcpj3me91)" points="71.3155,214.5182,242.1204,214.5182,254.6204,227.0182,242.1204,239.5182,71.3155,239.5182,58.8155,227.0182,71.3155,214.5182" style="stroke:#6B6B6B;stroke-width:1.0416666666666667;"/><text fill="#FFFFFF" font-family="Verdana, sans" font-size="12.5" lengthAdjust="spacing" textLength="21.6003" x="166.0929" y="256.3293">yes</text><text fill="#FFFFFF" font-family="Verdana, sans" font-size="12.5" lengthAdjust="spacing" textLength="160.3882" x="76.5238" y="231.3456">SVG diagram looks good?</text><text fill="#FFFFFF" font-family="Verdana, sans" font-size="12.5" lengthAdjust="spacing" textLength="15.5701" x="259.8287" y="218.8619">no</text><rect fill="url(#g1sjozzcpj3me90)" height="37.4674" rx="4.1667" ry="4.1667" style="stroke:#304D6D;stroke-width:1.0416666666666667;" width="236.3932" x="38.5213" y="315.5436"/><text fill="#FFFFFF" font-family="Verdana, sans" font-size="12.5" lengthAdjust="spacing" textLength="213.4766" x="49.9797" y="338.6047">Rewrite the example from scratch</text><polygon fill="url(#g1sjozzcpj3me91)" points="156.7179,110.3841,169.2179,122.8841,156.7179,135.3841,144.2179,122.8841,156.7179,110.3841" style="stroke:#6B6B6B;stroke-width:1.0416666666666667;"/><polygon fill="url(#g1sjozzcpj3me91)" points="92.2017,373.8444,221.2341,373.8444,233.7341,386.3444,221.2341,398.8444,92.2017,398.8444,79.7017,386.3444,92.2017,373.8444" style="stroke:#6B6B6B;stroke-width:1.0416666666666667;"/><text fill="#FFFFFF" font-family="Verdana, sans" font-size="12.5" lengthAdjust="spacing" textLength="82.1777" x="166.0929" y="415.6555">good enough</text><text fill="#FFFFFF" font-family="Verdana, sans" font-size="12.5" lengthAdjust="spacing" textLength="118.6157" x="97.4101" y="390.6718">SVG diagram looks</text><text fill="#FFFFFF" font-family="Verdana, sans" font-size="12.5" lengthAdjust="spacing" textLength="27.0203" x="238.9425" y="378.1881">bleh</text><polygon fill="url(#g1sjozzcpj3me91)" points="156.7179,435.3027,169.2179,447.8027,156.7179,460.3027,144.2179,447.8027,156.7179,435.3027" style="stroke:#6B6B6B;stroke-width:1.0416666666666667;"/><rect fill="url(#g1sjozzcpj3me90)" height="37.4674" rx="4.1667" ry="4.1667" style="stroke:#304D6D;stroke-width:1.0416666666666667;" width="142.7775" x="85.3292" y="481.1361"/><text fill="#FFFFFF" font-family="Verdana, sans" font-size="12.5" lengthAdjust="spacing" textLength="119.8608" x="96.7875" y="504.1972">Include in Conj talk</text><ellipse cx="156.7179" cy="550.8952" fill="none" rx="11.4583" ry="11.4583" style="stroke:#304D6D;stroke-width:1.0416666666666667;"/><ellipse cx="156.7179" cy="550.8952" fill="none" rx="6.25" ry="6.25" style="stroke:#304D6D;stroke-width:1.0416666666666667;"/><line style="stroke:#446E9B;stroke-width:3.125;" x1="156.7179" x2="156.7179" y1="31.25" y2="52.0833"/><polygon fill="#446E9B" points="152.5513,41.6667,156.7179,52.0833,160.8846,41.6667,156.7179,45.8333" style="stroke:#446E9B;stroke-width:1.0416666666666667;"/><line style="stroke:#446E9B;stroke-width:3.125;" x1="156.7179" x2="156.7179" y1="239.5182" y2="270.752"/><line style="stroke:#446E9B;stroke-width:3.125;" x1="156.7179" x2="28.1047" y1="270.752" y2="270.752"/><line style="stroke:#446E9B;stroke-width:3.125;" x1="28.1047" x2="28.1047" y1="270.752" y2="447.8027"/><line style="stroke:#446E9B;stroke-width:3.125;" x1="28.1047" x2="144.2179" y1="447.8027" y2="447.8027"/><polygon fill="#446E9B" points="133.8013,443.6361,144.2179,447.8027,133.8013,451.9694,137.9679,447.8027" style="stroke:#446E9B;stroke-width:1.0416666666666667;"/><line style="stroke:#446E9B;stroke-width:3.125;" x1="254.6204" x2="267.1204" y1="227.0182" y2="227.0182"/><polygon fill="#446E9B" points="262.9537,257.2103,267.1204,267.627,271.287,257.2103,267.1204,261.377" style="stroke:#446E9B;stroke-width:3.125;"/><line style="stroke:#446E9B;stroke-width:3.125;" x1="267.1204" x2="267.1204" y1="227.0182" y2="294.7103"/><line style="stroke:#446E9B;stroke-width:3.125;" x1="267.1204" x2="156.7179" y1="294.7103" y2="294.7103"/><line style="stroke:#446E9B;stroke-width:3.125;" x1="156.7179" x2="156.7179" y1="294.7103" y2="315.5436"/><polygon fill="#446E9B" points="152.5513,305.127,156.7179,315.5436,160.8846,305.127,156.7179,309.2936" style="stroke:#446E9B;stroke-width:1.0416666666666667;"/><line style="stroke:#446E9B;stroke-width:3.125;" x1="156.7179" x2="156.7179" y1="193.6849" y2="214.5182"/><polygon fill="#446E9B" points="152.5513,204.1016,156.7179,214.5182,160.8846,204.1016,156.7179,208.2682" style="stroke:#446E9B;stroke-width:1.0416666666666667;"/><line style="stroke:#446E9B;stroke-width:3.125;" x1="156.7179" x2="156.7179" y1="135.3841" y2="156.2174"/><polygon fill="#446E9B" points="152.5513,145.8008,156.7179,156.2174,160.8846,145.8008,156.7179,149.9674" style="stroke:#446E9B;stroke-width:1.0416666666666667;"/><line style="stroke:#446E9B;stroke-width:3.125;" x1="233.7341" x2="287.4146" y1="386.3444" y2="386.3444"/><polygon fill="#446E9B" points="283.2479,271.7936,287.4146,261.377,291.5812,271.7936,287.4146,267.627" style="stroke:#446E9B;stroke-width:3.125;"/><line style="stroke:#446E9B;stroke-width:3.125;" x1="287.4146" x2="287.4146" y1="122.8841" y2="386.3444"/><line style="stroke:#446E9B;stroke-width:3.125;" x1="287.4146" x2="169.2179" y1="122.8841" y2="122.8841"/><polygon fill="#446E9B" points="179.6346,118.7174,169.2179,122.8841,179.6346,127.0508,175.4679,122.8841" style="stroke:#446E9B;stroke-width:1.0416666666666667;"/><line style="stroke:#446E9B;stroke-width:3.125;" x1="156.7179" x2="156.7179" y1="353.0111" y2="373.8444"/><polygon fill="#446E9B" points="152.5513,363.4277,156.7179,373.8444,160.8846,363.4277,156.7179,367.5944" style="stroke:#446E9B;stroke-width:1.0416666666666667;"/><line style="stroke:#446E9B;stroke-width:3.125;" x1="156.7179" x2="156.7179" y1="398.8444" y2="435.3027"/><polygon fill="#446E9B" points="152.5513,424.8861,156.7179,435.3027,160.8846,424.8861,156.7179,429.0527" style="stroke:#446E9B;stroke-width:1.0416666666666667;"/><line style="stroke:#446E9B;stroke-width:3.125;" x1="156.7179" x2="156.7179" y1="89.5508" y2="110.3841"/><polygon fill="#446E9B" points="152.5513,99.9674,156.7179,110.3841,160.8846,99.9674,156.7179,104.1341" style="stroke:#446E9B;stroke-width:1.0416666666666667;"/><line style="stroke:#446E9B;stroke-width:3.125;" x1="156.7179" x2="156.7179" y1="460.3027" y2="481.1361"/><polygon fill="#446E9B" points="152.5513,470.7194,156.7179,481.1361,160.8846,470.7194,156.7179,474.8861" style="stroke:#446E9B;stroke-width:1.0416666666666667;"/><line style="stroke:#446E9B;stroke-width:3.125;" x1="156.7179" x2="156.7179" y1="518.6035" y2="539.4368"/><polygon fill="#446E9B" points="152.5513,529.0202,156.7179,539.4368,160.8846,529.0202,156.7179,533.1868" style="stroke:#446E9B;stroke-width:1.0416666666666667;"/><!--SRC=[PP3BQiGm34Nt_ehRdVqBoQAKMOH22qDVUoLHOZUs5MmDq_vz7SfqqvtGlU8STAUU4wFkD76aqPYgLDHq3tN3oPCEvpUe8D7689mZPNr_VW9_KTeZzwRmpgG6w0REN4WPhny3bYBfhzstE2omHp07MWibH96jOXMPxnsQGuRzvkfQ4nWBqzOcZfLXinnRpdDOpC5vuMi93TEERXg_k3er_EHlJhZwqAB_L8TGOSV8tY6BmXuM3I2NrJjZkiSynSlC21adoPzGYblV_YBx3m00]--></g></svg>
